<svg id="Layer_1" data-name="Layer 1" xmlns="http://www.w3.org/2000/svg" viewBox="0 0 250 250"><defs><style>.cls-1{fill:#fff;}.cls-2,.cls-3{fill:none;}.cls-2{stroke:#000;stroke-miterlimit:10;stroke-width:7px;}</style></defs><rect class="cls-1" width="250" height="250"/><path d="M126.15,766.81,221.66,923h-191l95.51-156.19m0-13.42L18.15,930h216l-108-176.61Z" transform="translate(0.35 -718.5)"/><path d="M126.15,788.62l75.51,123.47h-151l75.51-123.47m0-13.41-88,143.88h176l-88-143.88Z" transform="translate(0.35 -718.5)"/><path d="M126.15,788.62l75.51,123.47h-151l75.51-123.47m0-13.41-88,143.88h176l-88-143.88Z" transform="translate(0.35 -718.5)"/><path d="M126.16,846.75l22.51,36.84h-45l22.51-36.84m0-13.43-35,57.27h70l-35-57.27Z" transform="translate(0.35 -718.5)"/><path d="M126.15,867.15l3.47,5.68h-6.94l3.47-5.68m0-13.42-16,26.1h31.92l-16-26.1Z" transform="translate(0.35 -718.5)"/><line class="cls-2" x1="127.38" y1="120.29" x2="150" y2="81"/><line class="cls-2" x1="48.5" y1="168.6" x2="98.5" y2="168.6"/><line class="cls-2" x1="180" y1="209" x2="154.55" y2="167.59"/><polyline class="cls-3" points="140 92 143.74 84.9 140 78.78 136 85 140 92"/></svg>