<svg xmlns="http://www.w3.org/2000/svg" viewBox="0 0 216 176.61"><defs><style>.cls-1,.cls-2{fill:none;}.cls-1{stroke:#000;stroke-miterlimit:10;stroke-width:7px;}</style></defs><g id="Layer_2" data-name="Layer 2"><g id="Layer_1-2" data-name="Layer 1"><path d="M108,13.42l95.51,156.19h-191L108,13.42M108,0,0,176.61H216L108,0Z"/><path d="M108,35.23,183.51,158.7h-151L108,35.23m0-13.42L20,165.7H196L108,21.81Z"/><path d="M108,35.23,183.51,158.7h-151L108,35.23m0-13.42L20,165.7H196L108,21.81Z"/><path d="M108,93.35l22.51,36.85h-45L108,93.35m0-13.42L73,137.2h70L108,79.93Z"/><path d="M108,113.76l3.47,5.68h-6.94l3.47-5.68m0-13.42-16,26.1H124l-16-26.1Z"/><line class="cls-1" x1="108.88" y1="85.4" x2="131.5" y2="46.11"/><line class="cls-1" x1="30" y1="133.71" x2="80" y2="133.71"/><line class="cls-1" x1="161.5" y1="174.11" x2="136.05" y2="132.7"/><polyline class="cls-2" points="121.5 57.11 125.24 50.01 121.5 43.89 117.5 50.11 121.5 57.11"/></g></g></svg>