<svg xmlns="http://www.w3.org/2000/svg" width="83" height="103.813" viewBox="0 0 83 103.813"><defs><style>.a,.c,.d,.e{fill:#fff;}.b{fill:none;stroke-width:2px;}.b,.c,.d,.e{stroke:#fff;stroke-miterlimit:10;}.c,.d{font-size:19px;}.c,.d,.e{font-family:SweetSansPro-Regular, Sweet Sans Pro;}.c{letter-spacing:0.05em;}.d{letter-spacing:0.07em;}.e{font-size:11px;}</style></defs><path class="a" d="M41.5,5.157,78.2,65.175H4.807L41.5,5.157M41.5,0,0,67.864H83Z"/><path class="a" d="M53.815,26.967,82.83,74.412H24.807L53.815,26.967m0-5.157L20,77.1H87.63Z" transform="translate(-12.315 -13.429)"/><path class="a" d="M53.815,26.967,82.83,74.412H24.807L53.815,26.967m0-5.157L20,77.1H87.63Z" transform="translate(-12.315 -13.429)"/><path class="a" d="M86.449,85.087l8.65,14.16H77.807l8.642-14.16m0-5.157L73,101.937H99.9Z" transform="translate(-44.949 -49.216)"/><path class="a" d="M98.148,105.5l1.333,2.183H96.815l1.333-2.183m0-5.157L92,110.369h12.3Z" transform="translate(-56.648 -61.783)"/><line class="b" y1="15.098" x2="8.692" transform="translate(41.838 17.718)"/><line class="b" x2="19.213" transform="translate(11.528 51.38)"/><line class="b" x1="9.779" y1="15.912" transform="translate(52.278 50.992)"/><g transform="translate(9.754 63.801)"><text class="c" transform="translate(0 21)"><tspan x="0" y="0">A</tspan></text><text class="d" transform="translate(16.45 21)"><tspan x="0" y="0">dapt</tspan></text><text class="e" transform="translate(4.423 36.013)"><tspan x="0" y="0">Solutions</tspan></text></g></svg>