<svg xmlns="http://www.w3.org/2000/svg" width="17.65" height="18.081" viewBox="0 0 17.65 18.081">
    <defs>
        <style>.a{stroke-linecap:round;stroke-linejoin:round;stroke-width:2px;}</style>
        
    </defs>
    <path class="a" d="M18.816,15.038v2.421a1.633,1.633,0,0,1-.51,1.2,1.549,1.549,0,0,1-1.205.418,15.325,15.325,0,0,1-6.79-2.477A15.544,15.544,0,0,1,5.59,11.754a16.232,16.232,0,0,1-2.416-7,1.64,1.64,0,0,1,.405-1.233A1.556,1.556,0,0,1,4.74,3H7.1A1.587,1.587,0,0,1,8.674,4.388a10.577,10.577,0,0,0,.551,2.267,1.644,1.644,0,0,1-.354,1.7l-1,1.025a12.754,12.754,0,0,0,4.721,4.841l1-1.025a1.545,1.545,0,0,1,1.66-.363,9.9,9.9,0,0,0,2.211.565A1.6,1.6,0,0,1,18.816,15.038Z" transform="translate(-2.167 -2)"/>
</svg>