<svg id="Layer_1" data-name="Layer 1" xmlns="http://www.w3.org/2000/svg" viewBox="0 0 216 269.63"><defs><style>.cls-1,.cls-3{fill:#fff;}.cls-2{fill:none;stroke-width:7px;}.cls-2,.cls-3{stroke:#fff;stroke-miterlimit:10;}.cls-3{font-size:53.32px;font-family:SweetSansPro-Regular, Sweet Sans Pro;}.cls-4{letter-spacing:0.05em;}.cls-5{letter-spacing:0.07em;}.cls-6{font-size:32.08px;}</style></defs><path class="cls-1" d="M108,13.42l95.51,156.19h-191L108,13.42M108,0,0,176.61H216L108,0Z"/><path class="cls-1" d="M108,35.23,183.51,158.7h-151L108,35.23m0-13.42L20,165.7H196L108,21.81Z"/><path class="cls-1" d="M108,35.23,183.51,158.7h-151L108,35.23m0-13.42L20,165.7H196L108,21.81Z"/><path class="cls-1" d="M108,93.35l22.51,36.85h-45L108,93.35m0-13.42L73,137.2h70L108,79.93Z"/><path class="cls-1" d="M108,113.76l3.47,5.68h-6.94l3.47-5.68m0-13.42-16,26.1H124l-16-26.1Z"/><line class="cls-2" x1="108.88" y1="85.4" x2="131.5" y2="46.11"/><line class="cls-2" x1="30" y1="133.71" x2="80" y2="133.71"/><line class="cls-2" x1="161.5" y1="174.11" x2="136.05" y2="132.7"/><text class="cls-3" transform="translate(20.18 220.83)"><tspan class="cls-4">A<tspan class="cls-5" x="42.81" y="0">dapt</tspan></tspan><tspan class="cls-6"><tspan x="11.51" y="38.49">Solutions</tspan></tspan></text></svg>